<?xml version="1.0" encoding="UTF-8" standalone="no"?><!-- Generator: Gravit.io --><svg xmlns="http://www.w3.org/2000/svg" xmlns:xlink="http://www.w3.org/1999/xlink" style="isolation:isolate" viewBox="0 0 1500 900" width="1500pt" height="900pt"><defs><clipPath id="_clipPath_17PcwoGpRRiYQ6HhnpTYuw9cp2mdAzhE"><rect width="1500" height="900"/></clipPath></defs><g clip-path="url(#_clipPath_17PcwoGpRRiYQ6HhnpTYuw9cp2mdAzhE)"><path d=" M 359.021 97.724 C 350.093 91.113 339.637 87.909 329.021 84.724 C 315.067 81.236 305.16 76.989 296.396 68.224 C 292.3 64.129 280.646 53.851 280.646 49.474 C 280.646 47.984 280.425 45.282 280.271 44.974" fill="none" vector-effect="non-scaling-stroke" stroke-width="5" stroke="rgb(151,0,0)" stroke-linejoin="miter" stroke-linecap="square" stroke-miterlimit="3"/><path d=" M 356.266 96.389 C 350.34 86.582 341.962 80.311 333.434 74.024 C 322.004 66.561 314.451 59.228 309.353 46.986 C 306.971 41.266 299.757 26.569 301.143 21.54 C 301.615 19.828 302.272 16.668 302.231 16.276" fill="none" vector-effect="non-scaling-stroke" stroke-width="5" stroke="rgb(0,48,159)" stroke-linejoin="miter" stroke-linecap="square" stroke-miterlimit="3"/><path d=" M 359.021 90.724 C 351.895 82.13 347.348 75.511 335.771 74.224 C 326.859 74.224 311.752 70.081 306.521 64.849 C 299.795 58.123 297.258 53.074 293.396 45.349" fill="none" vector-effect="non-scaling-stroke" stroke-width="6" stroke="rgb(0,142,43)" stroke-linejoin="miter" stroke-linecap="square" stroke-miterlimit="3"/><path d=" M 358.213 94.542 C 352.437 86.415 348.952 80.387 337.317 76.595 C 328.185 74.412 313.441 67.634 309.009 62.468 C 303.31 55.827 301.607 51.456 299.021 44.776" fill="none" vector-effect="non-scaling-stroke" stroke-width="6" stroke="rgb(0,0,0)" stroke-linejoin="miter" stroke-linecap="square" stroke-miterlimit="3"/><rect x="-287.729" y="0" width="1008" height="57" transform="matrix(1,0,0,1,0,0)" fill="rgb(235,235,235)" vector-effect="non-scaling-stroke" stroke-width="1" stroke="rgb(0,0,0)" stroke-linejoin="miter" stroke-linecap="square" stroke-miterlimit="2"/><rect x="266.975" y="680.982" width="1008" height="14.568" transform="matrix(0.879,-0.476,0.476,0.879,-234.674,449.975)" fill="rgb(89,85,85)" vector-effect="non-scaling-stroke" stroke-width="1" stroke="rgb(0,0,0)" stroke-linejoin="miter" stroke-linecap="square" stroke-miterlimit="2"/><rect x="353.271" y="57" width="184" height="184" transform="matrix(1,0,0,1,0,0)" fill="rgb(89,85,85)" vector-effect="non-scaling-stroke" stroke-width="1" stroke="rgb(0,0,0)" stroke-linejoin="miter" stroke-linecap="square" stroke-miterlimit="2"/><rect x="366.258" y="62.336" width="155.268" height="170.613" transform="matrix(1,0,0,1,0,0)" fill="rgb(125,120,120)" vector-effect="non-scaling-stroke" stroke-width="1" stroke="rgb(0,0,0)" stroke-linejoin="miter" stroke-linecap="square" stroke-miterlimit="2"/><g opacity="0.61"><path d=" M 415.283 268.869 C 355.243 245.661 324.284 181.333 346.184 125.202 L 346.184 125.202 C 365.276 76.267 418.285 49.596 471.398 58.801 L 472.101 57 L 479.283 60.434 C 484.527 61.698 489.755 63.32 494.936 65.312 C 506.506 69.762 517 75.738 526.248 82.887 L 1237.657 423.006 L 1237.106 424.418 C 1255.909 437.186 1264.834 459.176 1257.366 478.317 C 1249.897 497.459 1228.381 507.741 1205.821 504.603 L 1205.549 505.301 L 433.11 274.284 C 427.479 273.023 421.862 271.352 416.297 269.256 L 415.271 268.949 L 415.283 268.869 Z " fill-rule="evenodd" fill="rgb(0,115,172)" vector-effect="non-scaling-stroke" stroke-width="1" stroke="rgb(0,0,0)" stroke-linejoin="miter" stroke-linecap="square" stroke-miterlimit="3"/></g><g><g><rect x="408.772" y="120.638" width="71.866" height="58.36" transform="matrix(1,0,0,1,0,0)" fill="rgb(235,235,235)"/><ellipse vector-effect="non-scaling-stroke" cx="428.2946422294881" cy="133.45555349898166" rx="30.27442799026835" ry="29.17992588787655" fill="rgb(89,85,85)"/><ellipse vector-effect="non-scaling-stroke" cx="462.2472717512842" cy="133.45555349898166" rx="30.27442799026835" ry="29.17992588787655" fill="rgb(89,85,85)"/><ellipse vector-effect="non-scaling-stroke" cx="462.2472717512842" cy="164.5444465010183" rx="30.27442799026835" ry="29.17992588787655" fill="rgb(89,85,85)"/><ellipse vector-effect="non-scaling-stroke" cx="428.2946422294881" cy="164.54444650101829" rx="19.887213995134175" ry="19.1682376519515" fill="rgb(125,120,120)"/><ellipse vector-effect="non-scaling-stroke" cx="428.2946422294881" cy="162.6354793868582" rx="19.887213995134175" ry="19.1682376519515" fill="rgb(125,120,120)"/><ellipse vector-effect="non-scaling-stroke" cx="428.294642229488" cy="164.5444465010183" rx="30.27442799026835" ry="29.17992588787655" fill="rgb(89,85,85)"/><ellipse vector-effect="non-scaling-stroke" cx="428.294642229488" cy="133.45555349898166" rx="19.887213995134175" ry="19.1682376519515" fill="rgb(125,120,120)"/><ellipse vector-effect="non-scaling-stroke" cx="428.29464222948803" cy="133.45555349898166" rx="10.776940330900459" ry="10.387324915100919" fill="rgb(89,85,85)"/><ellipse vector-effect="non-scaling-stroke" cx="462.2472717512842" cy="133.45555349898166" rx="10.776940330900459" ry="10.387324915100919" fill="rgb(89,85,85)"/><ellipse vector-effect="non-scaling-stroke" cx="428.294642229488" cy="164.5444465010182" rx="19.887213995134175" ry="19.1682376519515" fill="rgb(125,120,120)"/><ellipse vector-effect="non-scaling-stroke" cx="462.24727175128425" cy="164.5444465010182" rx="19.887213995134175" ry="19.1682376519515" fill="rgb(125,120,120)"/><ellipse vector-effect="non-scaling-stroke" cx="458.5690702197566" cy="133.45555349898166" rx="19.887213995134175" ry="19.1682376519515" fill="rgb(125,120,120)"/><ellipse vector-effect="non-scaling-stroke" cx="458.56907021975644" cy="133.45555349898166" rx="10.776940330900459" ry="10.387324915100919" fill="rgb(89,85,85)"/><ellipse vector-effect="non-scaling-stroke" cx="462.2472717512842" cy="164.54444650101834" rx="10.776940330900459" ry="10.387324915100919" fill="rgb(89,85,85)"/><ellipse vector-effect="non-scaling-stroke" cx="1216.4940166594859" cy="450.3360696928905" rx="10.776940330900516" ry="10.387324915100919" fill="rgb(89,85,85)"/></g></g><ellipse vector-effect="non-scaling-stroke" cx="428.2869799563787" cy="164.3360696928907" rx="10.776940330900459" ry="10.387324915100919" fill="rgb(89,85,85)"/><rect x="281.082" y="680.982" width="1008" height="14.568" transform="matrix(0.879,-0.476,0.476,0.879,-232.973,456.69)" fill="rgb(89,85,85)" vector-effect="non-scaling-stroke" stroke-width="1" stroke="rgb(0,0,0)" stroke-linejoin="miter" stroke-linecap="square" stroke-miterlimit="2"/><line x1="470.271" y1="62.336" x2="1246.271" y2="431.949" vector-effect="non-scaling-stroke" stroke-width="1" stroke="rgb(0,0,0)" stroke-linejoin="miter" stroke-linecap="square" stroke-miterlimit="3"/><line x1="1237.657" y1="423.949" x2="1246.271" y2="431.949" vector-effect="non-scaling-stroke" stroke-width="1" stroke="rgb(0,0,0)" stroke-linejoin="miter" stroke-linecap="square" stroke-miterlimit="3"/><line x1="1248" y1="419.137" x2="1262.057" y2="316.016" vector-effect="non-scaling-stroke" stroke-width="1" stroke="rgb(0,0,0)" stroke-linejoin="miter" stroke-linecap="square" stroke-miterlimit="3"/><line x1="1255.029" y1="431.949" x2="1266.336" y2="357.949" vector-effect="non-scaling-stroke" stroke-width="1" stroke="rgb(0,0,0)" stroke-linejoin="miter" stroke-linecap="square" stroke-miterlimit="3"/><line x1="1206.371" y1="394.949" x2="1217.678" y2="320.949" vector-effect="non-scaling-stroke" stroke-width="1" stroke="rgb(0,0,0)" stroke-linejoin="miter" stroke-linecap="square" stroke-miterlimit="3"/><path d=" M 1265.474 441.393 Q 1276.412 465.169 1265.747 485.589" fill="none" vector-effect="non-scaling-stroke" stroke-width="1" stroke="rgb(0,0,0)" stroke-linejoin="miter" stroke-linecap="square" stroke-miterlimit="3"/><path d=" M 1265.474 441.393 Q 1276.412 465.169 1265.747 485.589" fill="none" vector-effect="non-scaling-stroke" stroke-width="1" stroke="rgb(0,0,0)" stroke-linejoin="miter" stroke-linecap="square" stroke-miterlimit="3"/><path d=" M 1275.786 439.95 Q 1286.615 471.882 1275.143 494.798" fill="none" vector-effect="non-scaling-stroke" stroke-width="1" stroke="rgb(0,0,0)" stroke-linejoin="miter" stroke-linecap="square" stroke-miterlimit="3"/><g><path d=" M 347.272 263.426 Q 325.108 249.507 322.864 226.579" fill="none" vector-effect="non-scaling-stroke" stroke-width="1" stroke="rgb(0,0,0)" stroke-linejoin="miter" stroke-linecap="square" stroke-miterlimit="3"/><path d=" M 347.272 263.426 Q 325.108 249.507 322.864 226.579" fill="none" vector-effect="non-scaling-stroke" stroke-width="1" stroke="rgb(0,0,0)" stroke-linejoin="miter" stroke-linecap="square" stroke-miterlimit="3"/><path d=" M 339.429 270.275 Q 312.895 249.468 309.962 224.01" fill="none" vector-effect="non-scaling-stroke" stroke-width="1" stroke="rgb(0,0,0)" stroke-linejoin="miter" stroke-linecap="square" stroke-miterlimit="3"/></g><g><path d=" M 306.417 164.124 Q 303.121 138.161 319.424 121.885" fill="none" vector-effect="non-scaling-stroke" stroke-width="1" stroke="rgb(0,0,0)" stroke-linejoin="miter" stroke-linecap="square" stroke-miterlimit="3"/><path d=" M 306.417 164.124 Q 303.121 138.161 319.424 121.885" fill="none" vector-effect="non-scaling-stroke" stroke-width="1" stroke="rgb(0,0,0)" stroke-linejoin="miter" stroke-linecap="square" stroke-miterlimit="3"/><path d=" M 296.147 162.405 Q 295.404 128.694 313.227 110.28" fill="none" vector-effect="non-scaling-stroke" stroke-width="1" stroke="rgb(0,0,0)" stroke-linejoin="miter" stroke-linecap="square" stroke-miterlimit="3"/></g><path d=" M 1265.474 441.393 Q 1276.412 465.169 1265.747 485.589" fill="none" vector-effect="non-scaling-stroke" stroke-width="1" stroke="rgb(0,0,0)" stroke-linejoin="miter" stroke-linecap="square" stroke-miterlimit="3"/><path d=" M 1265.474 441.393 Q 1276.412 465.169 1265.747 485.589" fill="none" vector-effect="non-scaling-stroke" stroke-width="1" stroke="rgb(0,0,0)" stroke-linejoin="miter" stroke-linecap="square" stroke-miterlimit="3"/><path d=" M 1275.786 439.95 Q 1286.615 471.882 1275.143 494.798" fill="none" vector-effect="non-scaling-stroke" stroke-width="1" stroke="rgb(0,0,0)" stroke-linejoin="miter" stroke-linecap="square" stroke-miterlimit="3"/><g><path d=" M 750 78.695 Q 776.053 110.119 770.845 152.085" fill="none" vector-effect="non-scaling-stroke" stroke-width="1" stroke="rgb(0,0,0)" stroke-linejoin="miter" stroke-linecap="square" stroke-miterlimit="3"/><polygon points="781.321,158.818,768.757,174.723,762.638,146.398" fill="rgb(0,0,0)"/></g></g></svg>